<?xml version="1.0" encoding="UTF-8" standalone="no"?>
<!-- Created with Inkscape (http://www.inkscape.org/) -->

<svg
   xmlns:dc="http://purl.org/dc/elements/1.1/"
   xmlns:cc="http://creativecommons.org/ns#"
   xmlns:rdf="http://www.w3.org/1999/02/22-rdf-syntax-ns#"
   xmlns:svg="http://www.w3.org/2000/svg"
   xmlns="http://www.w3.org/2000/svg"
   xmlns:sodipodi="http://sodipodi.sourceforge.net/DTD/sodipodi-0.dtd"
   xmlns:inkscape="http://www.inkscape.org/namespaces/inkscape"
   version="1.1"
   id="svg2"
   xml:space="preserve"
   width="512"
   height="512"
   viewBox="0 0 512 512"
   sodipodi:docname="kakaotalk_raplah_v2.svg"
   inkscape:version="0.92.2 5c3e80d, 2017-08-06"><metadata
     id="metadata8"><rdf:RDF><cc:Work
         rdf:about=""><dc:format>image/svg+xml</dc:format><dc:type
           rdf:resource="http://purl.org/dc/dcmitype/StillImage" /><dc:title></dc:title></cc:Work></rdf:RDF></metadata><defs
     id="defs6"><clipPath
       clipPathUnits="userSpaceOnUse"
       id="clipPath18"><path
         d="M 0,841.89 H 595.275 V 0 H 0 Z"
         id="path16"
         inkscape:connector-curvature="0" /></clipPath></defs><sodipodi:namedview
     pagecolor="#ffffff"
     bordercolor="#666666"
     borderopacity="1"
     objecttolerance="10"
     gridtolerance="10"
     guidetolerance="10"
     inkscape:pageopacity="0"
     inkscape:pageshadow="2"
     inkscape:window-width="1920"
     inkscape:window-height="1035"
     id="namedview4"
     showgrid="false"
     fit-margin-top="0"
     fit-margin-left="0"
     fit-margin-right="0"
     fit-margin-bottom="0"
     inkscape:showpageshadow="false"
     inkscape:zoom="1.1352379"
     inkscape:cx="276.64012"
     inkscape:cy="176.27749"
     inkscape:window-x="1920"
     inkscape:window-y="120"
     inkscape:window-maximized="0"
     inkscape:current-layer="g10" /><g
     id="g10"
     inkscape:groupmode="layer"
     inkscape:label="kakaotalk-seeklogo.com"
     transform="matrix(1.3333333,0,0,-1.3333333,-226.18359,902.59374)"><path
       inkscape:connector-curvature="0"
       id="path22"
       style="fill:#ffe812;fill-opacity:1;fill-rule:nonzero;stroke:none;stroke-width:1.5"
       d="M 553.63769,322.94529 C 553.63769,306.37629 540.20669,292.94529 523.63769,292.94529 H 199.63769 C 183.06869,292.94529 169.63769,306.37629 169.63769,322.94529 V 646.94529 C 169.63769,663.51429 183.06869,676.94529 199.63769,676.94529 H 523.63769 C 540.20669,676.94529 553.63769,663.51429 553.63769,646.94529 Z" /><path
       style="fill:#000000;fill-opacity:1;fill-rule:nonzero;stroke:none;stroke-width:2"
       d="M 256 72 C 141.124 72 48 145.426 48 236 C 48 294.558 86.932095 345.93913 145.49609 374.95312 C 142.31009 385.94112 125.02198 445.64003 124.33398 450.33203 C 124.33398 450.33203 123.91917 453.85522 126.20117 455.19922 C 128.48317 456.54122 131.16797 455.5 131.16797 455.5 C 137.71197 454.586 207.05464 405.87792 219.05664 397.41992 C 231.04664 399.11792 243.392 400 256 400 C 370.876 400 464 326.576 464 236 C 464 145.426 370.876 72 256 72 z M 110.27539 187 L 171.72461 187 C 178.21861 187 183.5 192.272 183.5 198.75 C 183.5 205.228 178.21661 210.5 171.72461 210.5 L 153 210.5 L 153 281.78906 C 153 288.10906 147.618 293.25 141 293.25 C 134.382 293.25 129 288.10906 129 281.78906 L 129 210.5 L 110.27539 210.5 C 103.78139 210.5 98.5 205.228 98.5 198.75 C 98.5 192.272 103.78339 187 110.27539 187 z M 276.75 187 C 283.504 187 289 192.382 289 199 L 289 269.5 L 314.5 269.5 C 320.842 269.5 326 274.436 326 280.5 C 326 286.564 320.842 291.5 314.5 291.5 L 276 291.5 C 269.658 291.5 264.5 286.564 264.5 280.5 L 264.5 199 C 264.5 192.382 269.996 187 276.75 187 z M 342.66797 187 C 349.28597 187 354.66797 192.382 354.66797 199 L 354.66797 224.79102 L 388.14844 191.3125 C 389.87244 189.5905 392.23669 188.64258 394.80469 188.64258 C 397.80069 188.64258 400.8085 189.93355 403.0625 192.18555 C 405.1645 194.28555 406.41784 196.98697 406.58984 199.79297 C 406.76384 202.62297 405.82141 205.21761 403.94141 207.09961 L 376.5957 234.44141 L 406.13281 273.57422 C 408.06681 276.13422 408.8815 279.2908 408.4375 282.4668 C 407.9935 285.6408 406.33925 288.44891 403.78125 290.37891 C 401.68125 291.96491 399.18845 292.80273 396.56445 292.80273 C 392.76045 292.80273 389.26856 291.06325 386.97656 288.03125 L 358.83594 250.74219 L 354.67188 254.90625 L 354.67188 281.08789 C 354.66787 287.71189 349.28597 293.09375 342.66797 293.09375 C 336.04997 293.09375 330.66797 287.71175 330.66797 281.09375 L 330.66797 199 C 330.66797 192.382 336.04997 187 342.66797 187 z M 211.99023 187.00195 C 219.82823 187.17795 225.97009 193.10137 227.99609 198.85938 L 256.6875 274.375 C 260.3395 285.719 257.15956 289.91941 253.85156 291.44141 C 251.50156 292.52341 248.86661 293.09375 246.22461 293.09375 C 241.22061 293.09375 237.39228 291.06297 236.23828 287.79297 L 230.29688 272.23828 L 193.70508 272.23633 L 187.75781 287.80078 C 186.60781 291.06478 182.7833 293.09375 177.7793 293.09375 C 175.1373 293.09375 172.49639 292.5215 170.15039 291.4375 C 166.84239 289.9115 163.66264 285.71444 167.30664 274.39844 L 196.00977 198.8457 C 198.03177 193.0997 204.17423 187.17995 211.99023 187.00195 z M 212 216.93164 L 200.01367 250.98242 L 223.98633 250.98242 L 212 216.93164 z "
       id="path26"
       transform="matrix(0.75000002,0,0,-0.75000002,169.6377,676.94532)" /></g></svg>