<?xml version="1.0" encoding="UTF-8" standalone="no"?>
<!-- Created with Inkscape (http://www.inkscape.org/) -->

<svg
   xmlns:dc="http://purl.org/dc/elements/1.1/"
   xmlns:cc="http://creativecommons.org/ns#"
   xmlns:rdf="http://www.w3.org/1999/02/22-rdf-syntax-ns#"
   xmlns:svg="http://www.w3.org/2000/svg"
   xmlns="http://www.w3.org/2000/svg"
   xmlns:sodipodi="http://sodipodi.sourceforge.net/DTD/sodipodi-0.dtd"
   xmlns:inkscape="http://www.inkscape.org/namespaces/inkscape"
   width="256"
   height="54.556458"
   viewBox="0 0 67.733332 14.43473"
   version="1.1"
   id="svg2170"
   inkscape:version="0.92.2 5c3e80d, 2017-08-06"
   sodipodi:docname="raplah_logo_v1.4.3.svg">
  <defs
     id="defs2164" />
  <sodipodi:namedview
     id="base"
     pagecolor="#ffffff"
     bordercolor="#666666"
     borderopacity="1.0"
     inkscape:pageopacity="0.0"
     inkscape:pageshadow="2"
     inkscape:zoom="1.0953602"
     inkscape:cx="-77.539605"
     inkscape:cy="4.4124087"
     inkscape:document-units="px"
     inkscape:current-layer="layer1"
     showgrid="false"
     units="px"
     fit-margin-top="0"
     fit-margin-left="0"
     fit-margin-right="0"
     fit-margin-bottom="0"
     inkscape:showpageshadow="false"
     inkscape:window-width="1920"
     inkscape:window-height="1035"
     inkscape:window-x="1920"
     inkscape:window-y="120"
     inkscape:window-maximized="0"
     inkscape:snap-global="true" />
  <metadata
     id="metadata2167">
    <rdf:RDF>
      <cc:Work
         rdf:about="">
        <dc:format>image/svg+xml</dc:format>
        <dc:type
           rdf:resource="http://purl.org/dc/dcmitype/StillImage" />
        <dc:title></dc:title>
      </cc:Work>
    </rdf:RDF>
  </metadata>
  <g
     inkscape:label="Layer 1"
     inkscape:groupmode="layer"
     id="layer1"
     transform="translate(-65.3038,-114.2883)">
    <path
       inkscape:connector-curvature="0"
       style="color:#000000;clip-rule:nonzero;display:inline;overflow:visible;visibility:visible;opacity:1;isolation:auto;mix-blend-mode:normal;color-interpolation:sRGB;color-interpolation-filters:linearRGB;solid-color:#000000;solid-opacity:1;fill:#257289;fill-opacity:1;fill-rule:nonzero;stroke:none;stroke-width:5.29341412;stroke-linecap:round;stroke-linejoin:round;stroke-miterlimit:4;stroke-dasharray:none;stroke-dashoffset:0;stroke-opacity:1;paint-order:fill markers stroke;color-rendering:auto;image-rendering:auto;shape-rendering:auto;text-rendering:auto;enable-background:accumulate"
       d="M 75.118316,124.35627 74.245266,128.72303 H 130.15017 L 131.02372,124.35627 Z"
       id="path925-9" />
    <path
       d="M 84.656036,117.15007 Q 84.656036,118.30668 84.034201,119.17726 83.424802,120.03539 82.305498,120.45824 L 83.760593,122.99533 H 80.713599 L 79.482365,120.80646 H 78.761035 L 78.32575,122.99533 H 75.390686 L 77.131826,114.28963 H 81.036953 Q 82.75322,114.28963 83.69841,115.04827 84.656036,115.79447 84.656036,117.15007 Z M 81.683662,117.43613 Q 81.683662,116.55311 80.589232,116.55311 H 79.606732 L 79.196321,118.59273 H 80.40268 Q 81.01208,118.59273 81.347871,118.29424 81.683662,117.98334 81.683662,117.43613 Z"
       style="font-style:italic;font-variant:normal;font-weight:900;font-stretch:normal;font-size:medium;line-height:1000%;font-family:'Montserrat Alternates';-inkscape-font-specification:'Montserrat Alternates Heavy Italic';text-align:center;letter-spacing:0.00615718px;word-spacing:1.24374926px;text-anchor:middle;fill:#ffffff;fill-opacity:1;stroke:none;stroke-width:0.29148543px;stroke-linecap:butt;stroke-linejoin:miter;stroke-opacity:1"
       id="path949-2"
       inkscape:connector-curvature="0" />
    <path
       d="M 90.757483,114.28963 Q 91.888251,114.28963 92.727211,114.67871 93.566167,115.06779 94.016044,115.79732 94.465917,116.52684 94.465917,117.53602 94.465917,118.01022 94.356488,118.55737 L 93.468896,122.99533 H 90.599417 L 90.939864,121.28093 H 88.24061 L 87.900164,122.99533 H 85.079321 L 86.039867,118.1926 Q 86.41679,116.28367 87.63267,115.28664 88.860709,114.28963 90.757483,114.28963 Z M 91.377582,119.11667 91.523487,118.36282 Q 91.59644,118.01022 91.59644,117.75488 91.59644,117.18342 91.304629,116.90376 91.012819,116.61196 90.465672,116.61196 89.833413,116.61196 89.420014,117.00104 89.018774,117.39012 88.84855,118.24123 L 88.678328,119.11667 Z"
       style="font-style:italic;font-variant:normal;font-weight:900;font-stretch:normal;font-size:medium;line-height:1000%;font-family:'Montserrat Alternates';-inkscape-font-specification:'Montserrat Alternates Heavy Italic';text-align:center;letter-spacing:0.00615718px;word-spacing:1.24374926px;text-anchor:middle;fill:#ffffff;fill-opacity:1;stroke:none;stroke-width:0.28497201px;stroke-linecap:butt;stroke-linejoin:miter;stroke-opacity:1"
       id="path951-7"
       inkscape:connector-curvature="0" />
    <path
       d="M 100.63196,114.28963 Q 102.37309,114.28963 103.33072,115.04827 104.28835,115.80692 104.28835,117.17494 104.28835,118.26938 103.74113,119.10264 103.20636,119.93589 102.19898,120.39606 101.20403,120.85621 99.885759,120.85621 H 98.380912 L 97.958063,122.99533 H 95.023 L 96.764139,114.28963 Z M 100.03499,118.59273 Q 100.64438,118.59273 100.98019,118.29424 101.31598,117.98334 101.31598,117.43613 101.31598,116.55311 100.22154,116.55311 H 99.239048 L 98.828632,118.59273 Z"
       style="font-style:italic;font-variant:normal;font-weight:900;font-stretch:normal;font-size:medium;line-height:1000%;font-family:'Montserrat Alternates';-inkscape-font-specification:'Montserrat Alternates Heavy Italic';text-align:center;letter-spacing:0.00615718px;word-spacing:1.24374926px;text-anchor:middle;fill:#ffffff;fill-opacity:1;stroke:none;stroke-width:0.29148543px;stroke-linecap:butt;stroke-linejoin:miter;stroke-opacity:1"
       id="path953-3"
       inkscape:connector-curvature="0" />
    <path
       d="M 106.28491,114.28963 H 109.21998 L 107.939,120.71942 H 111.86899 L 111.40885,122.99533 H 104.54378 Z"
       style="font-style:italic;font-variant:normal;font-weight:900;font-stretch:normal;font-size:medium;line-height:1000%;font-family:'Montserrat Alternates';-inkscape-font-specification:'Montserrat Alternates Heavy Italic';text-align:center;letter-spacing:0.00615718px;word-spacing:1.24374926px;text-anchor:middle;fill:#ffffff;fill-opacity:1;stroke:none;stroke-width:0.29148543px;stroke-linecap:butt;stroke-linejoin:miter;stroke-opacity:1"
       id="path955-7"
       inkscape:connector-curvature="0" />
    <path
       d="M 118.44914,114.28963 Q 119.57991,114.28963 120.41886,114.67871 121.25782,115.06779 121.70769,115.79732 122.15758,116.52684 122.15758,117.53602 122.15758,118.01022 122.04815,118.55737 L 121.16055,122.99533 H 118.29108 L 118.63152,121.28093 H 115.93226 L 115.59182,122.99533 H 112.77097 L 113.73153,118.1926 Q 114.10845,116.28367 115.32433,115.28664 116.55236,114.28963 118.44914,114.28963 Z M 119.06924,119.11667 119.21514,118.36282 Q 119.2881,118.01022 119.2881,117.75488 119.2881,117.18342 118.99628,116.90376 118.70448,116.61196 118.15732,116.61196 117.52507,116.61196 117.11167,117.00104 116.71043,117.39012 116.54021,118.24123 L 116.36998,119.11667 Z"
       style="font-style:italic;font-variant:normal;font-weight:900;font-stretch:normal;font-size:medium;line-height:1000%;font-family:'Montserrat Alternates';-inkscape-font-specification:'Montserrat Alternates Heavy Italic';text-align:center;letter-spacing:0.00615718px;word-spacing:1.24374926px;text-anchor:middle;fill:#ffffff;fill-opacity:1;stroke:none;stroke-width:0.28497201px;stroke-linecap:butt;stroke-linejoin:miter;stroke-opacity:1"
       id="path957-9"
       inkscape:connector-curvature="0" />
    <path
       d="M 133.03713,114.28962 131.296,122.99533 H 128.36093 L 129.00763,119.78665 H 126.29643 L 125.64973,122.99533 H 122.71466 L 124.45579,114.28962 H 127.39087 L 126.76903,117.37394 H 129.48023 L 130.10207,114.28962 Z"
       style="font-style:italic;font-variant:normal;font-weight:900;font-stretch:normal;font-size:medium;line-height:1000%;font-family:'Montserrat Alternates';-inkscape-font-specification:'Montserrat Alternates Heavy Italic';text-align:center;letter-spacing:0.00615718px;word-spacing:1.24374926px;text-anchor:middle;fill:#ffffff;fill-opacity:1;stroke:none;stroke-width:0.29148552px;stroke-linecap:butt;stroke-linejoin:miter;stroke-opacity:1"
       id="path959-0"
       inkscape:connector-curvature="0" />
    <path
       id="path961-2"
       d="M 65.999122,114.2883 65.303804,114.98362 66.687392,116.33498 H 75.357474 L 75.770838,114.28981 Z"
       style="fill:#f3b832;fill-opacity:1;stroke-width:0.03711682"
       inkscape:connector-curvature="0"
       sodipodi:nodetypes="cccccc" />
    <path
       id="path963-3"
       d="M 68.410331,117.61888 67.715013,118.3137 69.098098,119.66506 H 74.683805 L 75.097673,117.61888 Z"
       style="fill:#27b376;fill-opacity:1;stroke-width:0.03711682"
       inkscape:connector-curvature="0" />
    <path
       id="path965-9"
       d="M 70.85175,120.94896 70.156432,121.64478 71.540019,122.99514 H 74.01064 L 74.424508,120.94896 Z"
       style="fill:#257289;fill-opacity:1;stroke-width:0.03711682"
       inkscape:connector-curvature="0" />
    <g
       id="g894"
       transform="translate(28.492584,10.784505)"
       style="fill:#ffffff">
      <path
         inkscape:connector-curvature="0"
         id="path841"
         style="font-style:italic;font-variant:normal;font-weight:900;font-stretch:normal;font-size:medium;line-height:1000%;font-family:'Montserrat Alternates';-inkscape-font-specification:'Montserrat Alternates Heavy Italic';text-align:center;letter-spacing:0.00529167px;word-spacing:1.06891668px;text-anchor:middle;fill:#ffffff;fill-opacity:1;stroke:none;stroke-width:0.07289051px;stroke-linecap:butt;stroke-linejoin:miter;stroke-opacity:1"
         d="M 50.804478,115.38194 Q 50.804478,115.67117 50.648979,115.88887 50.49659,116.10346 50.216689,116.2092 L 50.580559,116.84364 H 49.81861 L 49.51072,116.29628 H 49.330341 L 49.221491,116.84364 H 48.487532 L 48.922931,114.66665 H 49.89947 Q 50.32865,114.66665 50.565009,114.85636 50.804478,115.04296 50.804478,115.38194 Z M 50.061189,115.45347 Q 50.061189,115.23267 49.78751,115.23267 H 49.54182 L 49.439191,115.74271 H 49.740861 Q 49.89325,115.74271 49.97722,115.66806 50.061189,115.59031 50.061189,115.45347 Z" />
      <path
         inkscape:connector-curvature="0"
         id="path843"
         style="font-style:italic;font-variant:normal;font-weight:900;font-stretch:normal;font-size:medium;line-height:1000%;font-family:'Montserrat Alternates';-inkscape-font-specification:'Montserrat Alternates Heavy Italic';text-align:center;letter-spacing:0.00529167px;word-spacing:1.06891668px;text-anchor:middle;fill:#ffffff;fill-opacity:1;stroke:none;stroke-width:0.07126155px;stroke-linecap:butt;stroke-linejoin:miter;stroke-opacity:1"
         d="M 54.325715,114.66665 Q 54.608481,114.66665 54.818275,114.76394 55.028069,114.86124 55.140567,115.04367 55.253065,115.2261 55.253065,115.47846 55.253065,115.59704 55.225701,115.73386 L 55.003745,116.84364 H 54.286189 L 54.371322,116.41493 H 53.696333 L 53.611199,116.84364 H 52.905805 L 53.146004,115.64265 Q 53.240259,115.16529 53.544308,114.91597 53.851398,114.66665 54.325715,114.66665 Z M 54.48078,115.87372 54.517266,115.68521 Q 54.535509,115.59704 54.535509,115.53319 54.535509,115.39028 54.462537,115.32035 54.389565,115.24738 54.252743,115.24738 54.094638,115.24738 53.991261,115.34468 53.890924,115.44197 53.848358,115.65481 L 53.805791,115.87372 Z" />
      <path
         inkscape:connector-curvature="0"
         id="path845"
         style="font-style:italic;font-variant:normal;font-weight:900;font-stretch:normal;font-size:medium;line-height:1000%;font-family:'Montserrat Alternates';-inkscape-font-specification:'Montserrat Alternates Heavy Italic';text-align:center;letter-spacing:0.00529167px;word-spacing:1.06891668px;text-anchor:middle;fill:#ffffff;fill-opacity:1;stroke:none;stroke-width:0.07289051px;stroke-linecap:butt;stroke-linejoin:miter;stroke-opacity:1"
         d="M 58.756999,114.66665 Q 59.192398,114.66665 59.431868,114.85636 59.671337,115.04606 59.671337,115.38816 59.671337,115.66184 59.534497,115.87022 59.400768,116.07858 59.148858,116.19365 58.900059,116.30872 58.5704,116.30872 H 58.19409 L 58.08835,116.84364 H 57.354391 L 57.78979,114.66665 Z M 58.607719,115.74271 Q 58.760109,115.74271 58.844079,115.66806 58.928048,115.59031 58.928048,115.45347 58.928048,115.23267 58.654369,115.23267 H 58.408679 L 58.30605,115.74271 Z" />
      <path
         inkscape:connector-curvature="0"
         id="path849"
         style="font-style:italic;font-variant:normal;font-weight:900;font-stretch:normal;font-size:medium;line-height:1000%;font-family:'Montserrat Alternates';-inkscape-font-specification:'Montserrat Alternates Heavy Italic';text-align:center;letter-spacing:0.00529167px;word-spacing:1.06891668px;text-anchor:middle;fill:#ffffff;fill-opacity:1;stroke:none;stroke-width:0.07289051px;stroke-linecap:butt;stroke-linejoin:miter;stroke-opacity:1"
         d="M 65.478742,114.66665 H 66.461501 Q 66.8036,114.66665 67.052401,114.7786 67.30431,114.89056 67.43804,115.09894 67.57177,115.30731 67.57177,115.59031 67.57177,115.96662 67.39761,116.25274 67.22345,116.53575 66.912451,116.69125 66.604561,116.84364 66.209591,116.84364 H 65.043343 Z M 66.234471,116.2714 Q 66.517481,116.2714 66.67298,116.09413 66.831591,115.91375 66.831591,115.63385 66.831591,115.44414 66.713411,115.34151 66.598341,115.23889 66.377532,115.23889 H 66.097631 L 65.892372,116.2714 Z" />
      <path
         inkscape:connector-curvature="0"
         id="path851"
         style="font-style:italic;font-variant:normal;font-weight:900;font-stretch:normal;font-size:medium;line-height:1000%;font-family:'Montserrat Alternates';-inkscape-font-specification:'Montserrat Alternates Heavy Italic';text-align:center;letter-spacing:0.00529167px;word-spacing:1.06891668px;text-anchor:middle;fill:#ffffff;fill-opacity:1;stroke:none;stroke-width:0.0712614px;stroke-linecap:butt;stroke-linejoin:miter;stroke-opacity:1"
         d="M 76.239533,114.66665 Q 76.549663,114.66665 76.735133,114.83692 76.920602,115.00414 76.920602,115.31732 76.920602,115.43894 76.896278,115.55144 L 76.637837,116.84364 H 75.920282 L 76.172642,115.57272 Q 76.181764,115.52103 76.181764,115.47846 76.181764,115.36596 76.114873,115.30819 76.051023,115.24739 75.932444,115.24739 75.786501,115.24739 75.680084,115.33859 75.576707,115.42677 75.543261,115.59704 L 75.293942,116.84364 H 74.576387 L 74.828747,115.57272 Q 74.840909,115.49975 74.840909,115.47238 74.840909,115.36293 74.7801,115.30515 74.722331,115.24739 74.612873,115.24739 74.476051,115.24739 74.378755,115.33859 74.28146,115.42677 74.248015,115.59704 L 73.998694,116.84364 H 73.28114 L 73.706809,114.7153 H 74.400039 L 74.348351,114.96766 Q 74.58855,114.66665 74.995974,114.66665 75.400359,114.66665 75.53414,114.9555 75.810824,114.66665 76.239533,114.66665 Z" />
      <path
         inkscape:connector-curvature="0"
         id="path853"
         style="font-style:italic;font-variant:normal;font-weight:900;font-stretch:normal;font-size:medium;line-height:1000%;font-family:'Montserrat Alternates';-inkscape-font-specification:'Montserrat Alternates Heavy Italic';text-align:center;letter-spacing:0.00529167px;word-spacing:1.06891668px;text-anchor:middle;fill:#ffffff;fill-opacity:1;stroke:none;stroke-width:0.06970386px;stroke-linecap:butt;stroke-linejoin:miter;stroke-opacity:1"
         d="M 80.262088,116.84364 Q 79.943867,116.84364 79.70297,116.72765 79.465047,116.60869 79.33419,116.39753 79.206307,116.18638 79.206307,115.91277 79.206307,115.54994 79.372853,115.2674 79.542373,114.9819 79.839776,114.82427 80.140153,114.66665 80.517855,114.66665 80.836076,114.66665 81.073999,114.78561 81.314895,114.9016 81.442778,115.11275 81.573636,115.32391 81.573636,115.59752 81.573636,115.96035 81.404116,116.24586 81.23757,116.52839 80.937193,116.68601 80.63979,116.84364 80.262088,116.84364 Z M 80.321569,116.2756 Q 80.488115,116.2756 80.61005,116.18935 80.734959,116.1031 80.800388,115.95738 80.865817,115.81165 80.865817,115.63916 80.865817,115.45477 80.755777,115.34473 80.648712,115.23469 80.458374,115.23469 80.291828,115.23469 80.166919,115.32093 80.044984,115.40718 79.979555,115.55291 79.914126,115.69864 79.914126,115.87113 79.914126,116.05552 80.021192,116.16556 80.131231,116.2756 80.321569,116.2756 Z" />
      <path
         inkscape:connector-curvature="0"
         id="path855"
         style="font-style:italic;font-variant:normal;font-weight:900;font-stretch:normal;font-size:medium;line-height:1000%;font-family:'Montserrat Alternates';-inkscape-font-specification:'Montserrat Alternates Heavy Italic';text-align:center;letter-spacing:0.00529167px;word-spacing:1.06891668px;text-anchor:middle;fill:#ffffff;fill-opacity:1;stroke:none;stroke-width:0.06970386px;stroke-linecap:butt;stroke-linejoin:miter;stroke-opacity:1"
         d="M 84.915123,116.84364 Q 84.596901,116.84364 84.356005,116.72765 84.118082,116.60869 83.987225,116.39753 83.859342,116.18638 83.859342,115.91277 83.859342,115.54994 84.025887,115.2674 84.195407,114.9819 84.49281,114.82427 84.793187,114.66665 85.170889,114.66665 85.489111,114.66665 85.727033,114.78561 85.96793,114.9016 86.095813,115.11275 86.22667,115.32391 86.22667,115.59752 86.22667,115.96035 86.057151,116.24586 85.890605,116.52839 85.590228,116.68601 85.292825,116.84364 84.915123,116.84364 Z M 84.974603,116.2756 Q 85.141149,116.2756 85.263084,116.18935 85.387994,116.1031 85.453422,115.95738 85.518851,115.81165 85.518851,115.63916 85.518851,115.45477 85.408812,115.34473 85.301747,115.23469 85.111409,115.23469 84.944863,115.23469 84.819954,115.32093 84.698018,115.40718 84.63259,115.55291 84.567161,115.69864 84.567161,115.87113 84.567161,116.05552 84.674226,116.16556 84.784265,116.2756 84.974603,116.2756 Z" />
      <path
         inkscape:connector-curvature="0"
         id="path857"
         style="font-style:italic;font-variant:normal;font-weight:900;font-stretch:normal;font-size:medium;line-height:1000%;font-family:'Montserrat Alternates';-inkscape-font-specification:'Montserrat Alternates Heavy Italic';text-align:center;letter-spacing:0.00529167px;word-spacing:1.06891668px;text-anchor:middle;fill:#ffffff;fill-opacity:1;stroke:none;stroke-width:0.07289042px;stroke-linecap:butt;stroke-linejoin:miter;stroke-opacity:1"
         d="M 88.947775,114.66665 H 89.681734 L 89.361404,116.27451 H 90.344161 L 90.229091,116.84364 H 88.512377 Z" />
      <path
         inkscape:connector-curvature="0"
         id="path859"
         style="font-style:italic;font-variant:normal;font-weight:900;font-stretch:normal;font-size:medium;line-height:1000%;font-family:'Montserrat Alternates';-inkscape-font-specification:'Montserrat Alternates Heavy Italic';text-align:center;letter-spacing:0.00529167px;word-spacing:1.06891668px;text-anchor:middle;fill:#ffffff;fill-opacity:1;stroke:none;stroke-width:0.0712614px;stroke-linecap:butt;stroke-linejoin:miter;stroke-opacity:1"
         d="M 94.049772,114.66665 Q 94.332539,114.66665 94.542331,114.76394 94.752123,114.86124 94.864622,115.04367 94.97712,115.22611 94.97712,115.47846 94.97712,115.59704 94.949756,115.73386 L 94.7278,116.84364 H 94.010247 L 94.095379,116.41493 H 93.420392 L 93.335257,116.84364 H 92.629866 L 92.870064,115.64265 Q 92.96432,115.1653 93.268369,114.91598 93.575455,114.66665 94.049772,114.66665 Z M 94.204837,115.87373 94.241323,115.68522 Q 94.259565,115.59704 94.259565,115.53319 94.259565,115.39028 94.186594,115.32036 94.113624,115.24739 93.976801,115.24739 93.818694,115.24739 93.715318,115.34468 93.614983,115.44197 93.572415,115.65482 L 93.52985,115.87373 Z" />
      <path
         inkscape:connector-curvature="0"
         id="path861"
         style="font-style:italic;font-variant:normal;font-weight:900;font-stretch:normal;font-size:medium;line-height:1000%;font-family:'Montserrat Alternates';-inkscape-font-specification:'Montserrat Alternates Heavy Italic';text-align:center;letter-spacing:0.00529167px;word-spacing:1.06891668px;text-anchor:middle;fill:#ffffff;fill-opacity:1;stroke:none;stroke-width:0.07289042px;stroke-linecap:butt;stroke-linejoin:miter;stroke-opacity:1"
         d="M 99.844114,114.66665 99.408717,116.84364 H 98.674759 L 98.836478,116.04126 H 98.158501 L 97.99678,116.84364 H 97.262824 L 97.698222,114.66665 H 98.432181 L 98.27668,115.43793 H 98.954658 L 99.110159,114.66665 Z" />
      <path
         d="M 62.50662,116.84364 H 61.772661 L 62.208059,114.66665 H 62.942018 Z"
         style="font-style:italic;font-variant:normal;font-weight:900;font-stretch:normal;font-size:medium;line-height:1000%;font-family:'Montserrat Alternates';-inkscape-font-specification:'Montserrat Alternates Heavy Italic';text-align:center;letter-spacing:0.00529167px;word-spacing:1.06891668px;text-anchor:middle;fill:#ffffff;fill-opacity:1;stroke:none;stroke-width:0.07289042px;stroke-linecap:butt;stroke-linejoin:miter;stroke-opacity:1"
         id="path877"
         inkscape:connector-curvature="0"
         sodipodi:nodetypes="ccccc" />
    </g>
  </g>
</svg>
