<?xml version="1.0" encoding="UTF-8" standalone="no"?>
<!-- Created with Inkscape (http://www.inkscape.org/) -->

<svg
   xmlns:dc="http://purl.org/dc/elements/1.1/"
   xmlns:cc="http://creativecommons.org/ns#"
   xmlns:rdf="http://www.w3.org/1999/02/22-rdf-syntax-ns#"
   xmlns:svg="http://www.w3.org/2000/svg"
   xmlns="http://www.w3.org/2000/svg"
   xmlns:sodipodi="http://sodipodi.sourceforge.net/DTD/sodipodi-0.dtd"
   xmlns:inkscape="http://www.inkscape.org/namespaces/inkscape"
   width="256"
   height="54.556458"
   viewBox="0 0 67.733332 14.43473"
   version="1.1"
   id="svg2170"
   inkscape:version="0.92.2 5c3e80d, 2017-08-06"
   sodipodi:docname="raplah_logo_v1.4.2.svg">
  <defs
     id="defs2164" />
  <sodipodi:namedview
     id="base"
     pagecolor="#ffffff"
     bordercolor="#666666"
     borderopacity="1.0"
     inkscape:pageopacity="0.0"
     inkscape:pageshadow="2"
     inkscape:zoom="1.5490733"
     inkscape:cx="242.81855"
     inkscape:cy="-14.427734"
     inkscape:document-units="px"
     inkscape:current-layer="layer1"
     showgrid="false"
     units="px"
     fit-margin-top="0"
     fit-margin-left="0"
     fit-margin-right="0"
     fit-margin-bottom="0"
     inkscape:showpageshadow="false"
     inkscape:window-width="1920"
     inkscape:window-height="1035"
     inkscape:window-x="1920"
     inkscape:window-y="840"
     inkscape:window-maximized="0"
     inkscape:snap-global="true" />
  <metadata
     id="metadata2167">
    <rdf:RDF>
      <cc:Work
         rdf:about="">
        <dc:format>image/svg+xml</dc:format>
        <dc:type
           rdf:resource="http://purl.org/dc/dcmitype/StillImage" />
        <dc:title></dc:title>
      </cc:Work>
    </rdf:RDF>
  </metadata>
  <g
     inkscape:label="Layer 1"
     inkscape:groupmode="layer"
     id="layer1"
     transform="translate(-65.3038,-114.2883)">
    <path
       inkscape:connector-curvature="0"
       style="color:#000000;clip-rule:nonzero;display:inline;overflow:visible;visibility:visible;opacity:1;isolation:auto;mix-blend-mode:normal;color-interpolation:sRGB;color-interpolation-filters:linearRGB;solid-color:#000000;solid-opacity:1;fill:#257289;fill-opacity:1;fill-rule:nonzero;stroke:none;stroke-width:5.29341412;stroke-linecap:round;stroke-linejoin:round;stroke-miterlimit:4;stroke-dasharray:none;stroke-dashoffset:0;stroke-opacity:1;paint-order:fill markers stroke;color-rendering:auto;image-rendering:auto;shape-rendering:auto;text-rendering:auto;enable-background:accumulate"
       d="M 75.118316,124.35627 74.245266,128.72303 H 130.15017 L 131.02372,124.35627 Z"
       id="path925-9" />
    <g
       id="g934"
       transform="translate(28.492584,24.689463)">
      <path
         d="M 49.399732,102.40356 H 49.205132 V 102.93871 H 48.487532 V 100.81025 H 49.512233 Q 49.80718,100.81025 50.02611,100.90755 50.245039,101.00485 50.363622,101.18729 50.482204,101.36973 50.482204,101.61298 50.482204,101.84103 50.378828,102.01132 50.27544,102.18159 50.080839,102.28193 L 50.527811,102.93871 H 49.761574 Z M 49.758533,101.61298 Q 49.758533,101.4944 49.685556,101.43054 49.61258,101.36364 49.466626,101.36364 H 49.205132 V 101.86232 H 49.466626 Q 49.61258,101.86232 49.685556,101.79847 49.758533,101.73157 49.758533,101.61298 Z"
         style="font-style:normal;font-variant:normal;font-weight:900;font-stretch:normal;font-size:medium;line-height:1000%;font-family:'Montserrat Alternates';-inkscape-font-specification:'Montserrat Alternates Heavy';text-align:center;letter-spacing:0.00529147px;word-spacing:1.06887627px;text-anchor:middle;fill:#ffffff;fill-opacity:1;stroke:none;stroke-width:0.07126552px;stroke-linecap:butt;stroke-linejoin:miter;stroke-opacity:1"
         id="path927-3"
         inkscape:connector-curvature="0" />
      <path
         d="M 54.072724,100.7616 Q 54.382866,100.7616 54.620042,100.88626 54.857208,101.00788 54.987954,101.24506 55.121743,101.47919 55.121743,101.80455 V 102.93871 H 54.404153 V 102.50998 H 53.729119 V 102.93871 H 53.023693 V 101.80455 Q 53.023693,101.47919 53.154441,101.24506 53.288229,101.00788 53.525395,100.88626 53.762571,100.7616 54.072724,100.7616 Z M 54.404153,101.96874 V 101.74373 Q 54.404153,101.54609 54.309889,101.44575 54.218666,101.34236 54.066641,101.34236 53.914606,101.34236 53.820341,101.44575 53.729119,101.54609 53.729119,101.74373 V 101.96874 Z"
         style="font-style:normal;font-variant:normal;font-weight:900;font-stretch:normal;font-size:medium;line-height:1000%;font-family:'Montserrat Alternates';-inkscape-font-specification:'Montserrat Alternates Heavy';text-align:center;letter-spacing:0.00529147px;word-spacing:1.06887627px;text-anchor:middle;fill:#ffffff;fill-opacity:1;stroke:none;stroke-width:0.07126552px;stroke-linecap:butt;stroke-linejoin:miter;stroke-opacity:1"
         id="path929-8"
         inkscape:connector-curvature="0" />
      <path
         d="M 58.642338,100.81025 Q 58.937274,100.81025 59.156204,100.90755 59.375133,101.00485 59.493716,101.18729 59.61231,101.36973 59.61231,101.61298 59.61231,101.85624 59.493716,102.03868 59.375133,102.22112 59.156204,102.31841 58.937274,102.41572 58.642338,102.41572 H 58.335227 V 102.93871 H 57.617627 V 100.81025 Z M 58.596721,101.86232 Q 58.742674,101.86232 58.815651,101.79847 58.888627,101.73157 58.888627,101.61298 58.888627,101.4944 58.815651,101.43054 58.742674,101.36364 58.596721,101.36364 H 58.335227 V 101.86232 Z"
         style="font-style:normal;font-variant:normal;font-weight:900;font-stretch:normal;font-size:medium;line-height:1000%;font-family:'Montserrat Alternates';-inkscape-font-specification:'Montserrat Alternates Heavy';text-align:center;letter-spacing:0.00529147px;word-spacing:1.06887627px;text-anchor:middle;fill:#ffffff;fill-opacity:1;stroke:none;stroke-width:0.07126552px;stroke-linecap:butt;stroke-linejoin:miter;stroke-opacity:1"
         id="path931-0"
         inkscape:connector-curvature="0" />
      <path
         d="M 62.825793,102.93871 H 62.108192 V 100.81025 H 62.825793 Z"
         style="font-style:normal;font-variant:normal;font-weight:900;font-stretch:normal;font-size:medium;line-height:1000%;font-family:'Montserrat Alternates';-inkscape-font-specification:'Montserrat Alternates Heavy';text-align:center;letter-spacing:0.00529147px;word-spacing:1.06887627px;text-anchor:middle;fill:#ffffff;fill-opacity:1;stroke:none;stroke-width:0.07126552px;stroke-linecap:butt;stroke-linejoin:miter;stroke-opacity:1"
         id="path933-2"
         inkscape:connector-curvature="0"
         sodipodi:nodetypes="ccccc" />
      <path
         d="M 65.321675,100.81025 H 66.370705 Q 66.726464,100.81025 66.997083,100.941 67.270741,101.0687 67.419736,101.30892 67.571771,101.54912 67.571771,101.87449 67.571771,102.19983 67.419736,102.44003 67.270741,102.68025 66.997083,102.811 66.726464,102.93871 66.370705,102.93871 H 65.321675 Z M 66.340305,102.37923 Q 66.571388,102.37923 66.708217,102.24847 66.848088,102.11469 66.848088,101.87449 66.848088,101.63427 66.708217,101.50352 66.571388,101.36973 66.340305,101.36973 H 66.039276 V 102.37923 Z"
         style="font-style:normal;font-variant:normal;font-weight:900;font-stretch:normal;font-size:medium;line-height:1000%;font-family:'Montserrat Alternates';-inkscape-font-specification:'Montserrat Alternates Heavy';text-align:center;letter-spacing:0.00529147px;word-spacing:1.06887627px;text-anchor:middle;fill:#ffffff;fill-opacity:1;stroke:none;stroke-width:0.07126552px;stroke-linecap:butt;stroke-linejoin:miter;stroke-opacity:1"
         id="path935-4"
         inkscape:connector-curvature="0" />
      <path
         d="M 75.832241,100.78593 Q 76.212331,100.78593 76.425181,101.01398 76.638031,101.24202 76.638031,101.67076 V 102.96303 H 75.920431 V 101.69205 Q 75.920431,101.53393 75.838331,101.45183 75.756231,101.36668 75.613321,101.36668 75.467361,101.36668 75.379191,101.45791 75.294051,101.54609 75.294051,101.71636 V 102.96303 H 74.576461 V 101.69205 Q 74.576461,101.53393 74.500441,101.45183 74.427471,101.36668 74.293671,101.36668 74.156841,101.36668 74.077781,101.45791 73.998741,101.54609 73.998741,101.71636 V 102.96303 H 73.281141 V 100.83457 H 73.974411 V 101.04742 Q 74.172051,100.78593 74.561261,100.78593 74.968701,100.78593 75.166341,101.07175 75.278851,100.92884 75.449131,100.8589 75.622451,100.78593 75.832241,100.78593 Z"
         style="font-style:normal;font-variant:normal;font-weight:900;font-stretch:normal;font-size:medium;line-height:1000%;font-family:'Montserrat Alternates';-inkscape-font-specification:'Montserrat Alternates Heavy';text-align:center;letter-spacing:0.00529147px;word-spacing:1.06887627px;text-anchor:middle;fill:#ffffff;fill-opacity:1;stroke:none;stroke-width:0.07126552px;stroke-linecap:butt;stroke-linejoin:miter;stroke-opacity:1"
         id="path937-8"
         inkscape:connector-curvature="0" />
      <path
         d="M 80.334987,102.96303 Q 79.991397,102.96303 79.717727,102.82012 79.444077,102.67721 79.288987,102.42484 79.133917,102.16943 79.133917,101.85016 79.133917,101.53089 79.288987,101.27852 79.444077,101.02309 79.717727,100.88018 79.991397,100.73727 80.334987,100.73727 80.678587,100.73727 80.952237,100.88018 81.225907,101.02309 81.380977,101.27852 81.536037,101.53089 81.536037,101.85016 81.536037,102.16943 81.380977,102.42484 81.225907,102.67721 80.952237,102.82012 80.678587,102.96303 80.334987,102.96303 Z M 80.334987,102.38228 Q 80.468777,102.38228 80.575187,102.31841 80.684667,102.25153 80.748517,102.13294 80.812367,102.01132 80.812367,101.85016 80.812367,101.68901 80.748517,101.57041 80.684667,101.44879 80.575187,101.38493 80.468777,101.31804 80.334987,101.31804 80.201197,101.31804 80.091727,101.38493 79.985317,101.44879 79.921457,101.57041 79.857597,101.68901 79.857597,101.85016 79.857597,102.01132 79.921457,102.13294 79.985317,102.25153 80.091727,102.31841 80.201197,102.38228 80.334987,102.38228 Z"
         style="font-style:normal;font-variant:normal;font-weight:900;font-stretch:normal;font-size:medium;line-height:1000%;font-family:'Montserrat Alternates';-inkscape-font-specification:'Montserrat Alternates Heavy';text-align:center;letter-spacing:0.00529147px;word-spacing:1.06887627px;text-anchor:middle;fill:#ffffff;fill-opacity:1;stroke:none;stroke-width:0.07126552px;stroke-linecap:butt;stroke-linejoin:miter;stroke-opacity:1"
         id="path939-3"
         inkscape:connector-curvature="0" />
      <path
         d="M 85.232982,102.96303 Q 84.889392,102.96303 84.615722,102.82012 84.342072,102.67721 84.186982,102.42484 84.031922,102.16943 84.031922,101.85016 84.031922,101.53089 84.186982,101.27852 84.342072,101.02309 84.615722,100.88018 84.889392,100.73727 85.232982,100.73727 85.576582,100.73727 85.850232,100.88018 86.123902,101.02309 86.278972,101.27852 86.434052,101.53089 86.434052,101.85016 86.434052,102.16943 86.278972,102.42484 86.123902,102.67721 85.850232,102.82012 85.576582,102.96303 85.232982,102.96303 Z M 85.232982,102.38228 Q 85.366772,102.38228 85.473192,102.31841 85.582662,102.25153 85.646512,102.13294 85.710362,102.01132 85.710362,101.85016 85.710362,101.68901 85.646512,101.57041 85.582662,101.44879 85.473192,101.38493 85.366772,101.31804 85.232982,101.31804 85.099192,101.31804 84.989732,101.38493 84.883312,101.44879 84.819452,101.57041 84.755592,101.68901 84.755592,101.85016 84.755592,102.01132 84.819452,102.13294 84.883312,102.25153 84.989732,102.31841 85.099192,102.38228 85.232982,102.38228 Z"
         style="font-style:normal;font-variant:normal;font-weight:900;font-stretch:normal;font-size:medium;line-height:1000%;font-family:'Montserrat Alternates';-inkscape-font-specification:'Montserrat Alternates Heavy';text-align:center;letter-spacing:0.00529147px;word-spacing:1.06887627px;text-anchor:middle;fill:#ffffff;fill-opacity:1;stroke:none;stroke-width:0.07126552px;stroke-linecap:butt;stroke-linejoin:miter;stroke-opacity:1"
         id="path941-9"
         inkscape:connector-curvature="0" />
      <path
         d="M 88.929936,100.83457 H 89.647536 V 102.4066 H 90.608386 V 102.96303 H 88.929936 Z"
         style="font-style:normal;font-variant:normal;font-weight:900;font-stretch:normal;font-size:medium;line-height:1000%;font-family:'Montserrat Alternates';-inkscape-font-specification:'Montserrat Alternates Heavy';text-align:center;letter-spacing:0.00529147px;word-spacing:1.06887627px;text-anchor:middle;fill:#ffffff;fill-opacity:1;stroke:none;stroke-width:0.07126552px;stroke-linecap:butt;stroke-linejoin:miter;stroke-opacity:1"
         id="path943-0"
         inkscape:connector-curvature="0" />
      <path
         d="M 94.153299,100.78593 Q 94.463449,100.78593 94.700619,100.91059 94.937789,101.03221 95.068539,101.26939 95.20234,101.50352 95.20234,101.82888 V 102.96303 H 94.484739 V 102.53431 H 93.809699 V 102.96303 H 93.104269 V 101.82888 Q 93.104269,101.50352 93.235019,101.26939 93.368809,101.03221 93.605989,100.91059 93.843149,100.78593 94.153299,100.78593 Z M 94.484739,101.99307 V 101.76806 Q 94.484739,101.57042 94.390469,101.47008 94.299259,101.36668 94.147219,101.36668 93.995179,101.36668 93.900919,101.47008 93.809699,101.57042 93.809699,101.76806 V 101.99307 Z"
         style="font-style:normal;font-variant:normal;font-weight:900;font-stretch:normal;font-size:medium;line-height:1000%;font-family:'Montserrat Alternates';-inkscape-font-specification:'Montserrat Alternates Heavy';text-align:center;letter-spacing:0.00529147px;word-spacing:1.06887627px;text-anchor:middle;fill:#ffffff;fill-opacity:1;stroke:none;stroke-width:0.07126552px;stroke-linecap:butt;stroke-linejoin:miter;stroke-opacity:1"
         id="path945-5"
         inkscape:connector-curvature="0" />
      <path
         d="M 99.796283,100.83457 V 102.96303 H 99.078683 V 102.17856 H 98.415823 V 102.96303 H 97.698223 V 100.83457 H 98.415823 V 101.58866 H 99.078683 V 100.83457 Z"
         style="font-style:normal;font-variant:normal;font-weight:900;font-stretch:normal;font-size:medium;line-height:1000%;font-family:'Montserrat Alternates';-inkscape-font-specification:'Montserrat Alternates Heavy';text-align:center;letter-spacing:0.00529147px;word-spacing:1.06887627px;text-anchor:middle;fill:#ffffff;fill-opacity:1;stroke:none;stroke-width:0.07126552px;stroke-linecap:butt;stroke-linejoin:miter;stroke-opacity:1"
         id="path947-2"
         inkscape:connector-curvature="0" />
    </g>
    <path
       d="M 84.656036,117.15007 Q 84.656036,118.30668 84.034201,119.17726 83.424802,120.03539 82.305498,120.45824 L 83.760593,122.99533 H 80.713599 L 79.482365,120.80646 H 78.761035 L 78.32575,122.99533 H 75.390686 L 77.131826,114.28963 H 81.036953 Q 82.75322,114.28963 83.69841,115.04827 84.656036,115.79447 84.656036,117.15007 Z M 81.683662,117.43613 Q 81.683662,116.55311 80.589232,116.55311 H 79.606732 L 79.196321,118.59273 H 80.40268 Q 81.01208,118.59273 81.347871,118.29424 81.683662,117.98334 81.683662,117.43613 Z"
       style="font-style:italic;font-variant:normal;font-weight:900;font-stretch:normal;font-size:medium;line-height:1000%;font-family:'Montserrat Alternates';-inkscape-font-specification:'Montserrat Alternates Heavy Italic';text-align:center;letter-spacing:0.00615718px;word-spacing:1.24374926px;text-anchor:middle;fill:#ffffff;fill-opacity:1;stroke:none;stroke-width:0.29148543px;stroke-linecap:butt;stroke-linejoin:miter;stroke-opacity:1"
       id="path949-2"
       inkscape:connector-curvature="0" />
    <path
       d="M 90.757483,114.28963 Q 91.888251,114.28963 92.727211,114.67871 93.566167,115.06779 94.016044,115.79732 94.465917,116.52684 94.465917,117.53602 94.465917,118.01022 94.356488,118.55737 L 93.468896,122.99533 H 90.599417 L 90.939864,121.28093 H 88.24061 L 87.900164,122.99533 H 85.079321 L 86.039867,118.1926 Q 86.41679,116.28367 87.63267,115.28664 88.860709,114.28963 90.757483,114.28963 Z M 91.377582,119.11667 91.523487,118.36282 Q 91.59644,118.01022 91.59644,117.75488 91.59644,117.18342 91.304629,116.90376 91.012819,116.61196 90.465672,116.61196 89.833413,116.61196 89.420014,117.00104 89.018774,117.39012 88.84855,118.24123 L 88.678328,119.11667 Z"
       style="font-style:italic;font-variant:normal;font-weight:900;font-stretch:normal;font-size:medium;line-height:1000%;font-family:'Montserrat Alternates';-inkscape-font-specification:'Montserrat Alternates Heavy Italic';text-align:center;letter-spacing:0.00615718px;word-spacing:1.24374926px;text-anchor:middle;fill:#ffffff;fill-opacity:1;stroke:none;stroke-width:0.28497201px;stroke-linecap:butt;stroke-linejoin:miter;stroke-opacity:1"
       id="path951-7"
       inkscape:connector-curvature="0" />
    <path
       d="M 100.63196,114.28963 Q 102.37309,114.28963 103.33072,115.04827 104.28835,115.80692 104.28835,117.17494 104.28835,118.26938 103.74113,119.10264 103.20636,119.93589 102.19898,120.39606 101.20403,120.85621 99.885759,120.85621 H 98.380912 L 97.958063,122.99533 H 95.023 L 96.764139,114.28963 Z M 100.03499,118.59273 Q 100.64438,118.59273 100.98019,118.29424 101.31598,117.98334 101.31598,117.43613 101.31598,116.55311 100.22154,116.55311 H 99.239048 L 98.828632,118.59273 Z"
       style="font-style:italic;font-variant:normal;font-weight:900;font-stretch:normal;font-size:medium;line-height:1000%;font-family:'Montserrat Alternates';-inkscape-font-specification:'Montserrat Alternates Heavy Italic';text-align:center;letter-spacing:0.00615718px;word-spacing:1.24374926px;text-anchor:middle;fill:#ffffff;fill-opacity:1;stroke:none;stroke-width:0.29148543px;stroke-linecap:butt;stroke-linejoin:miter;stroke-opacity:1"
       id="path953-3"
       inkscape:connector-curvature="0" />
    <path
       d="M 106.28491,114.28963 H 109.21998 L 107.939,120.71942 H 111.86899 L 111.40885,122.99533 H 104.54378 Z"
       style="font-style:italic;font-variant:normal;font-weight:900;font-stretch:normal;font-size:medium;line-height:1000%;font-family:'Montserrat Alternates';-inkscape-font-specification:'Montserrat Alternates Heavy Italic';text-align:center;letter-spacing:0.00615718px;word-spacing:1.24374926px;text-anchor:middle;fill:#ffffff;fill-opacity:1;stroke:none;stroke-width:0.29148543px;stroke-linecap:butt;stroke-linejoin:miter;stroke-opacity:1"
       id="path955-7"
       inkscape:connector-curvature="0" />
    <path
       d="M 118.44914,114.28963 Q 119.57991,114.28963 120.41886,114.67871 121.25782,115.06779 121.70769,115.79732 122.15758,116.52684 122.15758,117.53602 122.15758,118.01022 122.04815,118.55737 L 121.16055,122.99533 H 118.29108 L 118.63152,121.28093 H 115.93226 L 115.59182,122.99533 H 112.77097 L 113.73153,118.1926 Q 114.10845,116.28367 115.32433,115.28664 116.55236,114.28963 118.44914,114.28963 Z M 119.06924,119.11667 119.21514,118.36282 Q 119.2881,118.01022 119.2881,117.75488 119.2881,117.18342 118.99628,116.90376 118.70448,116.61196 118.15732,116.61196 117.52507,116.61196 117.11167,117.00104 116.71043,117.39012 116.54021,118.24123 L 116.36998,119.11667 Z"
       style="font-style:italic;font-variant:normal;font-weight:900;font-stretch:normal;font-size:medium;line-height:1000%;font-family:'Montserrat Alternates';-inkscape-font-specification:'Montserrat Alternates Heavy Italic';text-align:center;letter-spacing:0.00615718px;word-spacing:1.24374926px;text-anchor:middle;fill:#ffffff;fill-opacity:1;stroke:none;stroke-width:0.28497201px;stroke-linecap:butt;stroke-linejoin:miter;stroke-opacity:1"
       id="path957-9"
       inkscape:connector-curvature="0" />
    <path
       d="M 133.03713,114.28962 131.296,122.99533 H 128.36093 L 129.00763,119.78665 H 126.29643 L 125.64973,122.99533 H 122.71466 L 124.45579,114.28962 H 127.39087 L 126.76903,117.37394 H 129.48023 L 130.10207,114.28962 Z"
       style="font-style:italic;font-variant:normal;font-weight:900;font-stretch:normal;font-size:medium;line-height:1000%;font-family:'Montserrat Alternates';-inkscape-font-specification:'Montserrat Alternates Heavy Italic';text-align:center;letter-spacing:0.00615718px;word-spacing:1.24374926px;text-anchor:middle;fill:#ffffff;fill-opacity:1;stroke:none;stroke-width:0.29148552px;stroke-linecap:butt;stroke-linejoin:miter;stroke-opacity:1"
       id="path959-0"
       inkscape:connector-curvature="0" />
    <path
       id="path961-2"
       d="M 65.999122,114.2883 65.303804,114.98362 66.687392,116.33498 H 75.357474 L 75.770838,114.28981 Z"
       style="fill:#f3b832;fill-opacity:1;stroke-width:0.03711682"
       inkscape:connector-curvature="0"
       sodipodi:nodetypes="cccccc" />
    <path
       id="path963-3"
       d="M 68.410331,117.61888 67.715013,118.3137 69.098098,119.66506 H 74.683805 L 75.097673,117.61888 Z"
       style="fill:#27b376;fill-opacity:1;stroke-width:0.03711682"
       inkscape:connector-curvature="0" />
    <path
       id="path965-9"
       d="M 70.85175,120.94896 70.156432,121.64478 71.540019,122.99514 H 74.01064 L 74.424508,120.94896 Z"
       style="fill:#257289;fill-opacity:1;stroke-width:0.03711682"
       inkscape:connector-curvature="0" />
  </g>
</svg>
